HIERARCHY
ROOT Hips
{
     OFFSET 15.67300 93.92070 -3.97795
     CHANNELS 6 Xposition Yposition Zposition Zrotation Xrotation Yrotation
     JOINT Spine
     {
          OFFSET -0.00000 11.89050 -0.00000
          CHANNELS 3 Zrotation Xrotation Yrotation
          JOINT Spine1
          {
               OFFSET -0.00000 25.65740 0.12766
               CHANNELS 3 Zrotation Xrotation Yrotation
               JOINT HEad
               {
                    OFFSET -0.00000 8.73416 0.01134
                    CHANNELS 3 Zrotation Xrotation Yrotation
                    End Site
                    {
                         OFFSET -0.29000 12.77420 2.51395
                    }
               }
               JOINT LeftShoulder1
               {
                    OFFSET 8.99000 -0.36225 -0.22000
                    CHANNELS 3 Zrotation Xrotation Yrotation
                    JOINT LeftArm
                    {
                         OFFSET 10.28270 -0.00338 0.32212
                         CHANNELS 3 Zrotation Xrotation Yrotation
                         JOINT LeftForeArm
                         {
                              OFFSET 32.76690 0.09914 -1.42434
                              CHANNELS 3 Zrotation Xrotation Yrotation
                              JOINT LeftHand
                              {
                                   OFFSET 27.56430 0.08536 1.02216
                                   CHANNELS 3 Zrotation Xrotation Yrotation
                                   End Site
                                   {
                                        OFFSET 16.74430 -0.60000 1.50291
                                   }
                              }
                         }
                    }
               }
               JOINT RightShoulder
               {
                    OFFSET -8.99000 -0.36225 -0.22000
                    CHANNELS 3 Zrotation Xrotation Yrotation
                    JOINT RightArm
                    {
                         OFFSET -10.28270 -0.00338 0.32212
                         CHANNELS 3 Zrotation Xrotation Yrotation
                         JOINT RightForeArm
                         {
                              OFFSET -32.89710 0.09914 -1.42434
                              CHANNELS 3 Zrotation Xrotation Yrotation
                              JOINT RightHand
                              {
                                   OFFSET -27.49210 0.08536 1.02216
                                   CHANNELS 3 Zrotation Xrotation Yrotation
                                   End Site
                                   {
                                        OFFSET -16.63120 -0.60000 1.50291
                                   }
                              }
                         }
                    }
               }
          }
     }
     JOINT LeftUpLeg
     {
          OFFSET 8.94580 -8.66707 0.10165
          CHANNELS 3 Zrotation Xrotation Yrotation
          JOINT LeftLeg
          {
               OFFSET -0.00000 -44.42270 1.37270
               CHANNELS 3 Zrotation Xrotation Yrotation
               JOINT LeftFoot
               {
                    OFFSET -0.25355 -42.09240 -1.46059
                    CHANNELS 3 Zrotation Xrotation Yrotation
                    JOINT LeftToes
                    {
                         OFFSET -0.04000 -4.41509 8.49910
                         CHANNELS 3 Zrotation Xrotation Yrotation
                         End Site
                         {
                              OFFSET 0.08000 -0.04745 9.77979
                         }
                    }
               }
          }
     }
     JOINT RightUpLeg
     {
          OFFSET -8.94580 -8.66707 0.10165
          CHANNELS 3 Zrotation Xrotation Yrotation
          JOINT RightLeg
          {
               OFFSET 0.00000 -44.42270 1.37270
               CHANNELS 3 Zrotation Xrotation Yrotation
               JOINT RightFoot
               {
                    OFFSET 0.25355 -42.09240 -1.46059
                    CHANNELS 3 Zrotation Xrotation Yrotation
                    JOINT RightToes
                    {
                         OFFSET 0.04000 -4.41509 8.49910
                         CHANNELS 3 Zrotation Xrotation Yrotation
                         End Site
                         {
                              OFFSET -0.08000 -0.13745 9.77979
                         }
                    }
               }
          }
     }
}
MOTION
Frames: 6
Frame Time: 0.01667
22.49480 93.31260 19.92090 10.69840 -55.75800 43.87430 6.83093 16.29830 -0.71849 9.24764 31.20950 -6.73210 16.28420 15.20200 -31.29710 -0.00000 0.00000 -0.00000 -75.33020 -5.29304 -64.61400 -30.31100 29.57120 -85.22350 14.52740 7.98354 -11.58200 38.91980 0.38744 -1.17846 69.10720 -41.60200 70.06490 7.75038 26.42450 89.24880 15.37450 11.40530 6.46958 29.96280 27.85630 -35.99230 -31.74210 12.85870 77.39200 2.87086 0.92578 -0.23644 -2.79350 -35.66520 -78.32400 -49.28220 -39.77490 -65.68970 -175.93201 81.86670 -167.69400 -6.39792 47.08510 3.32314 -0.83389 10.65900 0.80501 
22.42190 93.33610 20.78050 11.38310 -53.13410 44.74470 3.67974 15.52290 -0.85928 8.08344 31.01470 -6.46090 16.02230 13.68470 -31.23560 -0.00000 0.00000 -0.00000 -75.50990 -5.26884 -65.15900 -29.63250 29.80940 -85.47940 14.47590 8.01170 -11.40990 38.42700 0.39174 -1.15995 70.81660 -41.50660 71.40260 8.22953 27.12390 89.87120 15.18660 11.37680 6.39194 28.09570 26.30670 -34.25410 -32.18540 13.50490 76.02370 2.22071 0.49463 -0.17676 -2.28634 -35.09470 -77.30250 -48.96620 -42.71960 -71.47300 -149.25700 69.41120 163.01100 0.79288 42.83200 -0.19053 -0.66393 22.93510 -2.60709 
22.38650 93.18840 21.29650 11.58310 -50.30830 44.75630 0.83938 15.03740 -0.80442 7.13172 30.94370 -6.17310 15.60220 12.28490 -30.90410 -0.00000 0.00000 -0.00000 -75.64440 -5.15857 -65.90710 -28.68510 29.82150 -85.87310 14.26100 8.07441 -11.13510 37.69050 0.38111 -1.17508 72.64060 -41.35740 72.93110 8.42354 27.90940 90.70580 14.98520 11.34880 6.32478 25.67140 24.35260 -31.81820 -32.62010 14.54110 74.95590 1.28764 0.06820 -0.10295 -1.64987 -34.21870 -76.46490 -48.39180 -45.37030 -75.84920 -144.71100 59.36620 155.15500 6.87764 39.36180 -2.71445 -0.23534 31.48040 -4.73445 
22.40400 92.98580 21.33490 11.11340 -47.54470 43.90560 -1.28560 14.81870 -0.71509 6.46499 30.99780 -5.93808 15.05620 10.99490 -30.20490 -0.00000 0.00000 -0.00000 -75.89300 -5.22159 -66.75010 -27.76890 29.85990 -86.25700 13.97520 8.14743 -10.84360 36.68660 0.37795 -1.16701 74.56750 -41.03010 74.61170 8.27642 28.70330 91.68200 14.82860 11.31900 6.21250 23.20540 22.14170 -29.17050 -32.90370 15.35420 74.25210 0.39862 -0.25456 -0.03986 -0.89518 -33.05450 -75.77160 -47.85060 -47.45730 -78.17500 -143.97501 53.24900 151.92500 10.80470 37.39690 -4.16584 0.03669 35.58380 -5.66257 
22.51190 92.90250 20.76110 9.74609 -45.15050 42.14340 -2.03169 14.90950 -0.75467 6.14713 31.21400 -5.79304 14.41870 9.77261 -29.16020 -0.00000 0.00000 -0.00000 -76.43930 -5.68915 -67.61090 -27.19040 30.23190 -86.47630 13.79090 8.20008 -10.60040 35.39460 0.41429 -1.04626 76.57890 -40.44810 76.38260 7.86931 29.41650 92.68100 14.75470 11.28890 6.03917 21.25430 19.99070 -26.84570 -32.84220 15.12880 73.90810 -0.03711 -0.35679 -0.01109 -0.00454 -31.58820 -75.08630 -47.05430 -48.82040 -78.29470 -143.96201 51.21210 151.38300 12.35460 37.02080 -4.74446 0.00658 36.09460 -5.62532 
22.73240 93.07290 19.55250 7.39956 -43.16860 39.48010 -1.16300 15.31640 -0.98317 6.13756 31.58040 -5.74218 13.73050 8.60601 -27.86140 -0.00000 0.00000 -0.00000 -77.37590 -6.65131 -68.45350 -27.14110 31.08450 -86.40790 13.82130 8.21281 -10.45570 33.82400 0.51606 -0.72446 78.56630 -39.58420 78.11870 7.38204 29.95130 93.52730 14.75090 11.26380 5.85475 20.12730 18.17550 -25.07350 -32.34180 13.20340 73.83580 0.31977 -0.10069 -0.03612 0.98023 -29.87700 -74.40100 -45.80240 -49.41270 -76.49380 -143.85899 52.88320 152.82800 11.61160 38.13640 -4.56255 -0.32863 33.42190 -4.67019 
